<?xml version="1.0" encoding="UTF-8"?>
<!DOCTYPE svg PUBLIC "-//W3C//DTD SVG 1.1//EN" "http://www.w3.org/Graphics/SVG/1.1/DTD/svg11.dtd">
<svg version="1.1" xmlns="http://www.w3.org/2000/svg" xmlns:xlink="http://www.w3.org/1999/xlink" x="0" y="0" width="1024" height="1024" viewBox="0, 0, 1024, 1024">
  <g id="Layer_1">
    <path d="M511.999,165.513 C704.653,165.513 860.83,289.413 860.83,442.252 C861.039,500.212 837.252,554.565 800.08,598.217 L833.371,753.578 C835.887,765.317 824.28,775.107 813.133,770.649 L638.718,700.882 L637.73,700.428 C597.039,713.209 554.542,718.564 511.999,718.991 C319.345,718.991 163.169,595.091 163.169,442.252 C163.169,289.413 319.345,165.513 511.999,165.513 L511.999,165.513 z M665.551,508.299 L296.133,508.299 C282.84,508.3 272.064,519.075 272.064,532.368 C272.064,545.661 282.84,556.437 296.133,556.437 L665.551,556.437 C678.844,556.437 689.619,545.661 689.619,532.368 C689.619,519.075 678.844,508.3 665.551,508.299 z M340.854,425.413 L340.854,425.413 C338.682,426.097 339.536,425.629 338.169,426.569 C336.063,428.355 335.803,431.51 337.588,433.616 L364.5,465.365 L337.588,497.114 C335.803,499.22 336.063,502.376 338.169,504.161 C340.276,505.947 343.431,505.687 345.216,503.58 L374.869,468.598 C376.45,466.733 376.45,463.998 374.869,462.132 L345.216,427.15 C343.965,425.944 342.657,425.286 340.854,425.413 z M424.337,425.413 L424.337,425.413 C422.165,426.097 423.019,425.629 421.652,426.569 C419.546,428.355 419.286,431.51 421.071,433.616 L447.983,465.365 L421.071,497.114 C419.286,499.22 419.546,502.376 421.652,504.161 C423.759,505.947 426.914,505.687 428.699,503.58 L458.352,468.598 C459.933,466.733 459.933,463.998 458.352,462.132 L428.699,427.15 C427.448,425.944 426.14,425.286 424.337,425.413 z M382.595,425.413 L382.595,425.413 C380.423,426.097 381.278,425.629 379.911,426.569 C377.804,428.355 377.544,431.51 379.33,433.616 L406.242,465.365 L379.33,497.114 C377.544,499.22 377.804,502.376 379.911,504.161 C382.017,505.947 385.172,505.687 386.958,503.58 L416.611,468.598 C418.192,466.733 418.192,463.998 416.611,462.132 L386.958,427.15 C385.706,425.944 384.398,425.286 382.595,425.413 z M533.576,382.922 C531.911,383.068 530.325,383.261 529.214,384.659 L499.561,419.641 C497.98,421.506 497.98,424.241 499.561,426.107 L529.214,461.089 C531,463.195 534.155,463.455 536.261,461.67 C538.368,459.884 538.628,456.729 536.842,454.623 L509.93,422.874 L536.842,391.125 C538.628,389.019 538.368,385.864 536.261,384.078 C535.623,383.634 535.059,383.237 534.259,383.129 L533.576,382.922 z M488.332,382.922 C486.329,383.087 485.425,383.06 483.97,384.659 L454.317,419.641 C452.736,421.506 452.736,424.242 454.317,426.107 L483.97,461.089 C485.756,463.195 488.911,463.455 491.017,461.67 C493.124,459.884 493.384,456.729 491.598,454.623 L464.686,422.874 L491.598,391.125 C493.384,389.019 493.124,385.864 491.017,384.078 C489.65,383.137 490.505,383.605 488.332,382.922 z M580.32,382.922 C578.317,383.087 577.413,383.06 575.958,384.659 L546.305,419.641 C544.724,421.506 544.724,424.241 546.305,426.107 L575.958,461.089 C577.744,463.195 580.899,463.455 583.005,461.67 C585.112,459.884 585.372,456.729 583.586,454.623 L556.674,422.874 L583.586,391.125 C585.372,389.019 585.112,385.864 583.005,384.078 C581.638,383.137 582.493,383.605 580.32,382.922 z M727.866,328.068 L358.448,328.068 C345.155,328.068 334.38,338.844 334.379,352.136 C334.38,365.429 345.155,376.205 358.448,376.205 L727.866,376.205 C741.159,376.205 751.935,365.429 751.934,352.136 C751.935,338.844 741.159,328.068 727.866,328.068 z" fill="#202020"/>
  </g>
</svg>
