<?xml version="1.0" encoding="UTF-8"?>
<!DOCTYPE svg PUBLIC "-//W3C//DTD SVG 1.1//EN" "http://www.w3.org/Graphics/SVG/1.1/DTD/svg11.dtd">
<svg version="1.1" xmlns="http://www.w3.org/2000/svg" xmlns:xlink="http://www.w3.org/1999/xlink" x="0" y="0" width="1024" height="1024" viewBox="0, 0, 1024, 1024">
  <g id="Layer_2">
    <g>
      <path d="M754.08,815.256 C734.352,815.256 718.36,799.263 718.36,779.536 C718.36,759.808 734.352,743.816 754.08,743.816 C773.807,743.816 789.8,759.808 789.8,779.536 C789.8,799.263 773.807,815.256 754.08,815.256 z" fill="#202020"/>
      <path d="M331.792,535.196 C319.938,535.196 310.328,525.586 310.328,513.732 C310.328,501.878 319.938,492.269 331.792,492.269 C343.645,492.269 353.255,501.878 353.255,513.732 C353.255,525.586 343.645,535.196 331.792,535.196 z" fill="#202020"/>
      <path d="M754.08,280.184 C734.352,280.184 718.36,264.192 718.36,244.464 C718.36,224.736 734.352,208.744 754.08,208.744 C773.807,208.744 789.8,224.736 789.8,244.464 C789.8,264.192 773.807,280.184 754.08,280.184 z" fill="#202020"/>
      <path d="M442.874,604.43 C393.379,604.43 353.255,564.306 353.255,514.811 C353.255,465.316 393.379,425.192 442.874,425.192 C492.369,425.192 532.492,465.316 532.492,514.811 C532.492,564.306 492.369,604.43 442.874,604.43 z" fill="#202020"/>
      <g>
        <path d="M89.646,514.87 L310.828,514.87" fill="#202020"/>
        <path d="M89.646,514.87 L310.828,514.87" fill-opacity="0" stroke="#202020" stroke-width="3"/>
      </g>
      <g>
        <path d="M748.251,744.316 C629.367,744.316 532.992,640.528 532.992,512.5 C532.992,384.472 629.367,280.684 748.251,280.684 C963.383,275.884 951.953,489.239 898.614,514.87 C950.923,534.821 980.772,760.182 748.251,744.316 z" fill="#202020"/>
        <path d="M748.251,744.316 C629.367,744.316 532.992,640.528 532.992,512.5 C532.992,384.472 629.367,280.684 748.251,280.684 C963.383,275.884 951.953,489.239 898.614,514.87 C950.923,534.821 980.772,760.182 748.251,744.316 z" fill-opacity="0" stroke="#202020" stroke-width="3"/>
      </g>
    </g>
  </g>
</svg>
