<?xml version="1.0" encoding="UTF-8"?>
<!DOCTYPE svg PUBLIC "-//W3C//DTD SVG 1.1//EN" "http://www.w3.org/Graphics/SVG/1.1/DTD/svg11.dtd">
<svg version="1.1" xmlns="http://www.w3.org/2000/svg" xmlns:xlink="http://www.w3.org/1999/xlink" x="0" y="0" width="1024" height="1024" viewBox="0, 0, 1024, 1024">
  <g id="Background">
    <rect x="0" y="0" width="1024" height="1024" fill="#FFFFFF" fill-opacity="0"/>
  </g>
  <g id="Layer_1">
    <path d="M161.954,53.702 C165.53,54.053 168.499,55.655 171.123,58.027 L263.424,150.328 C269.282,156.186 269.282,165.683 263.424,171.541 C257.566,177.399 248.069,177.399 242.211,171.541 L160.516,89.846 L78.821,171.541 C72.964,177.399 63.466,177.399 57.608,171.541 C51.75,165.683 51.75,156.186 57.608,150.328 L149.91,58.027 C153.957,54.329 156.659,53.702 161.954,53.702 z" fill="#D0D0D0"/>
    <path d="M160.516,56.878 C168.801,56.878 175.516,63.593 175.516,71.878 L175.516,849.576 L953.215,849.576 C961.499,849.576 968.215,856.292 968.215,864.576 C968.215,872.861 961.499,879.576 953.215,879.576 L160.516,879.576 C152.232,879.576 145.516,872.861 145.516,864.576 L145.516,71.878 C145.516,63.593 152.232,56.878 160.516,56.878 z" fill="#D0D0D0"/>
    <path d="M865.922,756.832 C869.497,757.184 872.467,758.786 875.09,761.157 L967.392,853.459 C973.25,859.317 973.25,868.814 967.392,874.672 L875.09,966.973 C869.232,972.831 859.735,972.831 853.877,966.973 C848.019,961.115 848.019,951.618 853.877,945.76 L935.572,864.065 L853.877,782.37 C848.019,776.513 848.019,767.015 853.877,761.157 C857.925,757.46 860.626,756.832 865.922,756.832 z" fill="#D0D0D0"/>
    <g>
      <path d="M297.627,481.715 Q297.627,509.107 304.667,534.899 Q311.707,560.691 325.019,584.115 Q325.787,585.523 326.043,586.547 Q326.299,587.571 326.299,588.595 Q326.299,590.387 325.403,591.539 Q324.507,592.691 323.099,593.587 L312.987,599.731 Q303.387,585.011 296.667,570.547 Q289.947,556.083 285.787,541.491 Q281.627,526.899 279.707,512.115 Q277.787,497.331 277.787,481.715 Q277.787,466.227 279.707,451.379 Q281.627,436.531 285.787,422.003 Q289.947,407.475 296.667,393.011 Q303.387,378.547 312.987,363.699 L323.099,369.971 Q324.507,370.867 325.403,372.019 Q326.299,373.171 326.299,374.963 Q326.299,376.883 325.019,379.315 Q311.579,402.611 304.603,428.467 Q297.627,454.323 297.627,481.715 z" fill="#D0D0D0"/>
      <path d="M386.459,495.795 L342.811,432.563 L364.699,432.563 Q367.515,432.563 368.795,433.459 Q370.075,434.355 371.099,436.019 L402.843,484.659 Q403.995,481.075 406.171,477.491 L434.075,436.531 Q435.355,434.739 436.635,433.651 Q437.915,432.563 439.835,432.563 L460.827,432.563 L417.179,494.515 L462.619,562.227 L440.731,562.227 Q437.915,562.227 436.315,560.755 Q434.715,559.283 433.691,557.491 L401.051,506.675 Q400.155,510.387 398.363,513.331 L368.155,557.491 Q366.875,559.283 365.403,560.755 Q363.931,562.227 361.371,562.227 L341.019,562.227 z" fill="#D0D0D0"/>
      <path d="M549.787,412.979 L549.787,467.635 L601.883,467.635 L601.883,484.915 L549.787,484.915 L549.787,539.955 L531.099,539.955 L531.099,484.915 L479.259,484.915 L479.259,467.635 L531.099,467.635 L531.099,412.979 z" fill="#D0D0D0"/>
      <path d="M671.643,600.499 Q670.491,603.059 668.763,604.595 Q667.035,606.131 663.451,606.131 L646.555,606.131 L670.235,554.675 L616.731,432.563 L636.443,432.563 Q639.387,432.563 641.051,434.035 Q642.715,435.507 643.483,437.299 L678.171,518.963 Q679.323,521.779 680.155,524.595 Q680.987,527.411 681.627,530.355 Q682.523,527.411 683.419,524.595 Q684.315,521.779 685.467,518.835 L719.131,437.299 Q719.899,435.251 721.755,433.907 Q723.611,432.563 725.787,432.563 L743.963,432.563 z" fill="#D0D0D0"/>
      <path d="M790.043,432.563 L790.043,562.227 L767.259,562.227 L767.259,432.563 z M795.163,391.859 Q795.163,395.187 793.819,398.067 Q792.475,400.947 790.235,403.187 Q787.995,405.427 785.051,406.707 Q782.107,407.987 778.779,407.987 Q775.451,407.987 772.571,406.707 Q769.691,405.427 767.451,403.187 Q765.211,400.947 763.931,398.067 Q762.651,395.187 762.651,391.859 Q762.651,388.531 763.931,385.523 Q765.211,382.515 767.451,380.275 Q769.691,378.035 772.571,376.755 Q775.451,375.475 778.779,375.475 Q782.107,375.475 785.051,376.755 Q787.995,378.035 790.235,380.275 Q792.475,382.515 793.819,385.523 Q795.163,388.531 795.163,391.859 z" fill="#D0D0D0"/>
      <path d="M849.691,481.715 Q849.691,454.323 842.715,428.467 Q835.739,402.611 822.299,379.315 Q821.019,376.883 821.019,374.963 Q821.019,373.171 821.915,372.019 Q822.811,370.867 824.219,369.971 L834.331,363.699 Q843.931,378.547 850.651,393.011 Q857.371,407.475 861.531,422.003 Q865.691,436.531 867.611,451.379 Q869.531,466.227 869.531,481.715 Q869.531,497.331 867.611,512.115 Q865.691,526.899 861.531,541.491 Q857.371,556.083 850.651,570.547 Q843.931,585.011 834.331,599.731 L824.219,593.587 Q822.811,592.691 821.915,591.539 Q821.019,590.387 821.019,588.595 Q821.019,587.571 821.275,586.547 Q821.531,585.523 822.299,584.115 Q835.611,560.691 842.651,534.899 Q849.691,509.107 849.691,481.715 z" fill="#D0D0D0"/>
    </g>
  </g>
</svg>
