<?xml version="1.0" encoding="UTF-8"?>
<!DOCTYPE svg PUBLIC "-//W3C//DTD SVG 1.1//EN" "http://www.w3.org/Graphics/SVG/1.1/DTD/svg11.dtd">
<svg version="1.1" xmlns="http://www.w3.org/2000/svg" xmlns:xlink="http://www.w3.org/1999/xlink" x="0" y="0" width="1024" height="1024" viewBox="0, 0, 1024, 1024">
  <g id="Background">
    <rect x="0" y="0" width="1024" height="1024" fill="#FFFFFF" fill-opacity="0"/>
  </g>
  <g id="Layer_1">
    <path d="M633.916,94.4 C673.468,94.4 705.532,126.464 705.532,166.017 C705.558,175.498 703.632,184.856 699.946,193.576 L840.147,472.203 C853.355,452.018 875.856,441.419 899.514,440.383 C939.067,440.383 971.131,472.447 971.131,512 C971.131,551.553 939.067,583.617 899.514,583.617 C884.603,583.363 868.187,578.899 856.488,569.243 L699.877,830.261 C703.865,838.967 705.292,848.489 705.532,857.983 C705.532,897.536 673.468,929.6 633.916,929.6 C599.118,928.698 574.758,908.705 564.565,875.918 L450.53,870.07 C443.973,905.116 415.437,928.703 379.98,929.6 C340.428,929.6 308.364,897.536 308.364,857.983 C308.474,849.109 309.857,840.106 313.331,831.889 L185.293,559.183 C172.087,575.115 151.776,583.103 131.48,583.617 C91.928,583.617 59.864,551.553 59.864,512 C59.864,472.447 91.928,440.383 131.48,440.383 C150.382,440.452 168.562,447.917 181.928,461.283 L315.186,196.498 C310.528,186.946 308.63,176.565 308.364,166.017 C308.364,126.464 340.428,94.4 379.98,94.4 C419.784,94.897 450.581,125.815 451.583,165.456 L562.313,165.456 C562.935,125.423 594.386,95.4 633.916,94.4 z M510.043,765.963 L449.787,842.441 C450.875,847.828 450.47,845.281 451.075,850.071 L562.355,855.778 C562.597,850.785 562.381,853.335 563.029,848.131 L510.043,765.963 z M203.725,551.383 L325.758,811.297 C339.027,795.086 359.406,786.887 379.98,786.367 C398.963,786.793 412.682,792.874 427.012,804.945 L456.616,683.114 L443.125,662.191 C430.826,685.858 406.229,699.499 379.98,700.163 C340.428,700.163 308.364,668.099 308.364,628.546 C308.468,624.426 308.333,626.083 308.589,623.562 L203.725,551.383 z M834.041,540.802 L704.874,619.284 C705.563,626.083 705.392,622.993 705.532,628.546 C705.532,668.099 673.468,700.163 633.916,700.163 C614.282,699.87 593.392,691.833 580.631,676.369 L562.744,699.073 L586.455,804.636 C599.786,793.134 616.668,788.038 633.916,786.367 C654.344,786.586 674.862,795.208 688.019,811.152 L841.953,554.594 C838.794,550.325 836.065,545.718 834.041,540.802 z M482.886,723.851 L454.115,804.63 L498.582,748.191 L482.886,723.851 z M529.681,741.037 L523.129,749.353 L544.036,781.774 L529.681,741.037 z M546.793,719.318 L544.333,722.44 L553.05,747.176 L546.793,719.318 z M503.364,666.354 L491.353,700.078 L511.669,731.581 L521.813,718.707 L503.364,666.354 z M529.192,640.958 L515.621,640.958 L536.465,700.11 L541.144,694.171 L529.192,640.958 z M491.179,640.958 L487.442,640.958 L479.418,673.981 L491.179,640.958 z M563.487,640.958 L549.69,640.958 L557.095,673.925 L569.021,658.789 C566.088,653.201 564.782,647.066 563.487,640.958 z M466.86,640.958 L453.23,640.958 L463.129,656.31 L466.86,640.958 z M522.701,612.062 L519.533,620.958 L524.699,620.958 L522.701,612.062 z M476.362,589.725 L454.226,620.958 L471.72,620.958 L478.106,594.675 L476.362,589.725 z M535.723,575.501 L535.272,576.768 L545.198,620.958 L562.788,620.958 C563.392,615.984 562.984,618.653 564.094,612.966 L535.723,575.501 z M509.137,551.673 L498.943,593.628 L503.465,606.462 L514.49,575.507 L509.137,551.673 z M318.428,435.685 L203.062,510.599 L203.097,512 C203.135,516.669 202.633,521.14 201.699,525.709 L313.3,602.525 C324.584,574.495 349.978,557.688 379.98,556.93 C401.422,557.821 423.595,567.161 436.718,584.732 L455.577,530.74 L427.932,452.288 C414.587,464.308 397.799,470.275 379.98,470.726 C355.567,470.418 330.366,457.666 318.428,435.685 z M697.416,432.099 C685.092,456.094 660.527,470.053 633.916,470.726 C612.436,470.451 596.261,462.62 581.268,447.626 L557.396,514.651 L579.637,582.02 C593.077,565.902 613.521,558.437 633.916,556.93 C661.535,557.145 688.328,573.512 699.235,599.307 L828.567,520.726 C828.042,515.84 828.167,517.831 828.025,514.763 L697.416,432.099 z M466.216,560.932 L460.348,577.733 L468.221,566.623 L466.216,560.932 z M546.466,545.339 L543.748,552.97 L553.032,565.229 L546.466,545.339 z M484.673,508.089 L476.772,530.711 L482.385,546.64 L493.635,530.765 L495.63,522.558 L484.673,508.089 z M534.184,508.14 L523.305,523.49 L524.098,527.022 L529.309,533.902 L536.253,514.405 L534.184,508.14 z M454.986,468.887 L466.132,500.518 L470.175,488.944 L454.986,468.887 z M687.544,213.424 C674.366,229.228 654.086,237.123 633.916,237.633 C617.795,237.505 601.764,232.233 589.264,221.919 L559.086,346.115 L571.263,364.632 C583.662,341.423 608.243,328.734 633.916,327.493 C673.468,327.493 705.532,359.557 705.532,399.109 C705.571,403.678 705.073,408.227 704.159,412.697 L826.907,490.386 L687.544,213.424 z M433.257,213.85 C420.13,229.41 399.912,237.129 379.98,237.633 C359.781,237.604 342.24,229.442 328.108,215.31 L195.197,479.408 C196.977,482.476 198.263,485.805 199.314,489.185 L310.601,416.921 C309.001,411.102 308.515,405.11 308.364,399.109 C308.364,359.557 340.428,327.493 379.98,327.493 C403.228,327.591 424.603,339.21 438.163,357.895 L459.379,330.15 L433.257,213.85 z M493.604,482.519 L492.592,485.417 L494.956,488.539 L493.604,482.519 z M525.85,482.894 L524.956,486.574 L526.394,484.544 L525.85,482.894 z M451.227,405.745 C450.85,412.301 448.925,418.62 446.634,424.729 L478.094,466.272 L485.312,445.605 L477.028,408.722 L451.227,405.745 z M542.05,416.224 L534.779,446.146 L540.763,464.27 L567.591,426.417 L567.677,426.175 C565.828,421.639 566.696,424.059 565.139,418.888 L542.05,416.224 z M510.117,435.241 L506.079,446.802 L509.902,463.821 L513.994,446.983 L510.117,435.241 z M552.628,372.693 L546.809,396.641 L562.316,398.43 C562.548,392.695 562.326,395.944 563.152,388.696 L552.628,372.693 z M532.231,371.929 L524.499,394.067 L526.788,394.331 L532.231,371.929 z M489.361,372.371 L493.429,390.482 L495.416,390.711 L489.361,372.371 z M465.096,355.599 L448.142,377.769 C449.815,383.412 449.158,380.828 450.218,385.496 L472.385,388.053 L465.096,355.599 z M506.112,301.963 L492.888,319.256 L510.651,373.061 L525.295,331.134 L506.112,301.963 z M560.18,231.258 L518.981,285.134 L533.599,307.361 L560.18,231.258 z M468.093,244.155 L485.295,296.26 L494.47,284.262 L468.093,244.155 z M565.09,185.456 L453.427,185.456 L507.34,267.433 L566.493,190.078 C565.324,186.613 565.756,188.163 565.09,185.456 z" fill="#D0D0D0"/>
  </g>
</svg>
