<?xml version="1.0" encoding="UTF-8"?>
<!DOCTYPE svg PUBLIC "-//W3C//DTD SVG 1.1//EN" "http://www.w3.org/Graphics/SVG/1.1/DTD/svg11.dtd">
<svg version="1.1" xmlns="http://www.w3.org/2000/svg" xmlns:xlink="http://www.w3.org/1999/xlink" x="0" y="0" width="1024" height="1024" viewBox="0, 0, 1024, 1024">
  <g id="Background">
    <rect x="0" y="0" width="1024" height="1024" fill="#FFFFFF" fill-opacity="0"/>
  </g>
  <g id="Layer_1">
    <path d="M251.056,356.969 C319.534,357.239 379.707,409.966 386.661,478.559 L884.556,478.559 C892.84,478.559 899.556,485.275 899.556,493.559 L899.556,615.15 C899.556,623.434 892.84,630.15 884.556,630.15 C876.272,630.15 869.556,623.434 869.556,615.15 L869.556,508.559 L763.87,508.559 L763.87,565.817 C763.871,574.102 757.155,580.818 748.87,580.817 C740.586,580.818 733.871,574.102 733.87,565.817 L733.87,508.559 L386.661,508.559 C379.248,579.359 320.978,628.382 251.056,630.15 C175.619,630.15 114.465,568.996 114.465,493.559 C114.465,418.122 175.619,356.969 251.056,356.969 z M251.056,386.969 C192.188,386.969 144.465,434.691 144.465,493.559 C144.465,552.428 192.188,600.15 251.056,600.15 C311.01,599.367 356.144,552.97 357.646,493.56 L357.646,493.559 L357.646,493.558 C356.862,433.603 310.466,388.471 251.056,386.969 z" fill="#D0D0D0"/>
  </g>
</svg>
